# xmcd
#
# Track frame offsets: 
#        182
#        11515
#        35142
#        47902
#        70450
#        90505
#        107715
#        127160
#        150997
#        167265
#        183797
#        197687
#
# Disc length: 2892 seconds
#
# Revision: 2
# Processed by: cddbd v1.5.2PL0 Copyright (c) Steve Scherf et al.
# Submitted via: ExactAudioCopy v1.0b1
#
DISCID=970b4a0c
DTITLE=Mitch Woods - Keeper of the Flame
DYEAR=1900
DGENRE=
TTITLE0=Chicago Express
TTITLE1=Never Get Out Of These Blues
TTITLE2=Rocket 88
TTITLE3=Blues Ya 'Fore I Lose Ya
TTITLE4=Big Chief
TTITLE5=Blues Hangover
TTITLE6=Blue Boogie
TTITLE7=Full Tilt Boogie
TTITLE8=Moanin' N' Ticklin'
TTITLE9=Lonely, Lonely Nights
TTITLE10=Jump For Joy
TTITLE11=Blues For Michael
EXTD=
EXTT0=Harp - James Cotton\nPiano - Johnnie Johnson\n
EXTT1=Vocals, guitar - John Lee Hooker\n
EXTT2=
EXTT3=
EXTT4=Harp - James Cotton\nVocals, guitar - Earl King\n
EXTT5=Harp - James Cotton\n
EXTT6=Piano - Johnnie Johnson\n
EXTT7=Piano - Johnnie Johnson\n
EXTT8=Saxophone - Lee Allen\n
EXTT9=Vocals, guitar - Earl King\n
EXTT10=Saxophone - Lee Allen\n
EXTT11=Harp - James Cotton\n
PLAYORDER=
